<svg id="_x31_1_x2C__Illustrator_x2C__Adobe_x2C__Ai" xmlns="http://www.w3.org/2000/svg" width="60" height="60" viewBox="0 0 60 60">
  <g id="グループ_7" data-name="グループ 7">
    <path id="パス_54" data-name="パス 54" d="M0,0V60H60V0ZM57.36,57.36H2.64V2.64H57.36V57.36Z"/>
    <g id="グループ_6" data-name="グループ 6" transform="translate(14.312 13.75)">
      <g id="XMLID_1211_">
        <g id="XMLID_1220_" transform="translate(0 0.998)">
          <g id="グループ_4" data-name="グループ 4">
            <path id="XMLID_130_" d="M128.592,145.3l-2.167,7.185c-.036.248-.142.331-.355.331h-3.623c-.249,0-.319-.124-.249-.413,1.918-6.319,5.15-16.849,7.423-23.993a9.494,9.494,0,0,0,.284-2.271.222.222,0,0,1,.213-.248h4.9c.177,0,.213.041.284.206,2.628,8.466,5.505,17.8,8.2,26.347q.107.371-.213.372h-3.979c-.177,0-.248-.083-.319-.248l-2.274-7.268h-8.133Zm7.174-4.047c-.71-2.767-2.451-8.342-3.161-11.232h-.036c-.533,2.725-1.989,7.392-3.055,11.232Z" transform="translate(-122.172 -125.887)"/>
          </g>
        </g>
        <g id="XMLID_1212_" transform="translate(24.938)">
          <g id="グループ_5" data-name="グループ 5">
            <path id="XMLID_137_" d="M334.89,119.93a2.374,2.374,0,0,1,2.373-2.56,2.569,2.569,0,1,1-2.373,2.56Zm.244,5.616c0-.248.07-.33.244-.33h3.7c.209,0,.28.041.28.33v19.409c0,.207-.07.33-.28.33h-3.629c-.21,0-.314-.082-.314-.371V125.546Z" transform="translate(-334.89 -117.37)"/>
          </g>
        </g>
      </g>
    </g>
  </g>
</svg>
