<svg xmlns="http://www.w3.org/2000/svg" width="60" height="60" viewBox="0 0 60 60">
  <g id="iconfinder_code-programming-javascript-software-develop-command-language_652581" transform="translate(0.001 0)">
    <path id="中マド_1" data-name="中マド 1" d="M30,60a30.221,30.221,0,0,1-6.046-.61,29.836,29.836,0,0,1-10.727-4.514,30.087,30.087,0,0,1-10.869-13.2A29.853,29.853,0,0,1,.61,36.046a30.292,30.292,0,0,1,0-12.092A29.838,29.838,0,0,1,5.124,13.227a30.089,30.089,0,0,1,13.2-10.869A29.852,29.852,0,0,1,23.954.61a30.291,30.291,0,0,1,12.092,0A29.833,29.833,0,0,1,46.773,5.124a30.087,30.087,0,0,1,10.869,13.2,29.845,29.845,0,0,1,1.748,5.631,30.292,30.292,0,0,1,0,12.092,29.837,29.837,0,0,1-4.514,10.727,30.087,30.087,0,0,1-13.2,10.869,29.845,29.845,0,0,1-5.631,1.748A30.221,30.221,0,0,1,30,60Zm.48-23.76h0L29.4,40.56a11.7,11.7,0,0,0,2.8.99A16.949,16.949,0,0,0,36,42a13.966,13.966,0,0,0,4.171-.577,8.267,8.267,0,0,0,2.917-1.561A6.348,6.348,0,0,0,44.8,37.57a6.858,6.858,0,0,0,.56-2.77,6.062,6.062,0,0,0-1.47-4.155,10.741,10.741,0,0,0-4.53-2.8,15.5,15.5,0,0,1-3.308-1.515,2.551,2.551,0,0,1-.768-.8,1.94,1.94,0,0,1-.245-.988A1.9,1.9,0,0,1,35.865,23,4.246,4.246,0,0,1,38.4,22.32a11.275,11.275,0,0,1,4.8,1.08l1.2-4.2A13.709,13.709,0,0,0,38.46,18a12.225,12.225,0,0,0-3.682.53A8.366,8.366,0,0,0,32,19.987a6.4,6.4,0,0,0-1.752,2.189,6.213,6.213,0,0,0-.61,2.723,5.9,5.9,0,0,0,.463,2.336,6.2,6.2,0,0,0,1.307,1.909,9.488,9.488,0,0,0,2.027,1.526A16.419,16.419,0,0,0,36.06,31.86a17.071,17.071,0,0,1,1.8.709,5.866,5.866,0,0,1,1.208.731,2.474,2.474,0,0,1,.68.821,2.174,2.174,0,0,1,.213.979,2.374,2.374,0,0,1-.234,1.061,2.23,2.23,0,0,1-.7.814,3.392,3.392,0,0,1-1.146.521,6.267,6.267,0,0,1-1.584.184,12.478,12.478,0,0,1-3.225-.45,13.172,13.172,0,0,1-2.595-.99ZM14.4,37.2l-.6,4.26a12.816,12.816,0,0,0,3.84.54,13.544,13.544,0,0,0,1.8-.113,9.446,9.446,0,0,0,1.61-.355,7.025,7.025,0,0,0,1.405-.62A5.976,5.976,0,0,0,23.64,40a6.153,6.153,0,0,0,.948-1.216,7.69,7.69,0,0,0,.7-1.548,10.97,10.97,0,0,0,.429-1.9,16.645,16.645,0,0,0,.146-2.279V18.36H20.64l.06,14.7a5.334,5.334,0,0,1-.968,3.608,2.6,2.6,0,0,1-1.133.738,4.609,4.609,0,0,1-1.5.215,8.768,8.768,0,0,1-2.7-.42Z" transform="translate(-0.001 0)"/>
  </g>
</svg>
