<svg xmlns="http://www.w3.org/2000/svg" width="62.557" height="60" viewBox="0 0 62.557 60">
  <g id="jquery" transform="translate(-6.03 -6.6)">
    <path id="パス_137" data-name="パス 137" d="M67.088,45.191l-.2.47a26.57,26.57,0,0,1-2.773,4.63A27.443,27.443,0,0,1,48.458,60.847a29.232,29.232,0,0,1-4.182.738,38.29,38.29,0,0,1-5.77.179,39.5,39.5,0,0,1-5.882-.716,14.831,14.831,0,0,1-2.237-.649A36.21,36.21,0,0,1,11.733,46.354a32.139,32.139,0,0,1-4.9-10.982,27.979,27.979,0,0,1-.805-6.71,23.26,23.26,0,0,1,2.1-9.751,22.7,22.7,0,0,1,1.543-2.8l.6-.828L13.7,10.95l.38-.47a.582.582,0,0,1,0,.4,23.618,23.618,0,0,0-1.566,4.361,26.57,26.57,0,0,0-.626,8.946,30.462,30.462,0,0,0,2.617,9.572,34.264,34.264,0,0,0,6.71,9.774,37.731,37.731,0,0,0,7.358,5.837,36.925,36.925,0,0,0,9.17,3.914c1.029.268,2.1.447,3.176.626a30.376,30.376,0,0,0,3.2.335h3a30.081,30.081,0,0,0,7.85-1.1,24.222,24.222,0,0,0,8.79-4.473,21.65,21.65,0,0,0,3.131-3.109l.134-.38Z" transform="translate(0 4.798)"/>
    <path id="パス_138" data-name="パス 138" d="M57.252,35.371A18.183,18.183,0,0,1,45.13,44.5a23.082,23.082,0,0,1-4.473.716,27.442,27.442,0,0,1-4.473,0,23.4,23.4,0,0,1-3.064-.38l-.425-.112a26.414,26.414,0,0,1-12.167-7.4,25.43,25.43,0,0,1-5.368-8.745,21.851,21.851,0,0,1-1.006-7.112,17.289,17.289,0,0,1,3.243-9.93c.738-1.029,1.476-2.08,2.237-3.131.112-.134.2-.268.313-.38s.112,0,.157,0h0l-.246.358A17.579,17.579,0,0,0,18.4,12.848a19.011,19.011,0,0,0-.291,4.473,21,21,0,0,0,1.879,7.56A25.117,25.117,0,0,0,26.343,33.4,26.19,26.19,0,0,0,37.257,39.2a22.835,22.835,0,0,0,6.956.738,19.771,19.771,0,0,0,9.394-2.818,16.618,16.618,0,0,0,4.607-4.138l.335-.4S57.61,34.677,57.252,35.371Z" transform="translate(10.037 1.691)"/>
    <path id="パス_139" data-name="パス 139" d="M24.547,6.645l-.2.492a11.026,11.026,0,0,0-.805,5.1,14.6,14.6,0,0,0,2.908,7.47,16.014,16.014,0,0,0,8.946,6.128,17.378,17.378,0,0,0,4.786.626,10.937,10.937,0,0,0,3.288-.47,8.946,8.946,0,0,0,4.093-2.5l.38-.38v.224a12.189,12.189,0,0,1-6.128,5.614,13.084,13.084,0,0,1-4.249.872,18.072,18.072,0,0,1-4.249-.313,13.42,13.42,0,0,1-2.773-.939,16.461,16.461,0,0,1-7.694-7,13.419,13.419,0,0,1-1.633-4.853A11.608,11.608,0,0,1,23.272,8.3l1.051-1.431.2-.268Z" transform="translate(18.632 0)"/>
    <path id="パス_140" data-name="パス 140" d="M16.79,8Z" transform="translate(13.305 1.731)"/>
  </g>
</svg>
