<svg xmlns="http://www.w3.org/2000/svg" width="19" height="16" viewBox="0 0 19 16">
  <path id="FontAwsome_twitter_" data-name="FontAwsome (twitter)" d="M17.047,52.07c.012.175.012.35.012.525,0,5.337-3.918,11.488-11.079,11.488A10.722,10.722,0,0,1,0,62.27a7.772,7.772,0,0,0,.94.05,7.624,7.624,0,0,0,4.834-1.725,3.921,3.921,0,0,1-3.641-2.8,4.74,4.74,0,0,0,.735.062,3.981,3.981,0,0,0,1.025-.137A4,4,0,0,1,.772,53.757v-.05a3.817,3.817,0,0,0,1.76.512A4.075,4.075,0,0,1,.8,50.857a4.12,4.12,0,0,1,.53-2.037,10.944,10.944,0,0,0,8.029,4.225,4.719,4.719,0,0,1-.1-.925,3.966,3.966,0,0,1,3.894-4.038A3.822,3.822,0,0,1,16,49.357a7.5,7.5,0,0,0,2.471-.975,4,4,0,0,1-1.712,2.225A7.589,7.589,0,0,0,19,49.982,8.546,8.546,0,0,1,17.047,52.07Z" transform="translate(0 -48.082)"/>
</svg>
