<svg id="_x33__x2C__XD_x2C__Adobe" xmlns="http://www.w3.org/2000/svg" width="60" height="60" viewBox="0 0 60 60">
  <g id="グループ_23" data-name="グループ 23">
    <path id="パス_61" data-name="パス 61" d="M0,0V60H60V0ZM57.36,57.36H2.64V2.64H57.36V57.36Z"/>
    <g id="グループ_22" data-name="グループ 22" transform="translate(11.252 16.057)">
      <path id="パス_62" data-name="パス 62" d="M115.974,137.064h-4.689l-5.033,10.527-5.1-10.527h-4.83l6.836,13.669-7.08,14h4.773L105.973,154l5.183,10.726h5.166l-7.3-14.161Zm12.962,0V144.1h-1.351c-4.611,0-10.185,2.973-10.185,10.568,0,5.871,2.975,10.284,9.311,10.284,4.665,0,6.863-1.614,6.863-1.614V137.064Zm0,23.845a4.932,4.932,0,0,1-1.794.235c-1.26,0-5.126-.555-5.126-6.685s4.442-6.621,5.51-6.621a2.275,2.275,0,0,1,1.41.3v12.771Z" transform="translate(-96.077 -137.064)"/>
    </g>
  </g>
</svg>
